<svg width="28" height="28" viewBox="0 0 28 28" fill="none" xmlns="http://www.w3.org/2000/svg">
<path d="M4.52961 8.05367C4.45703 8.04961 4.38875 8.01775 4.33884 7.96464C4.28892 7.91154 4.26117 7.84123 4.26128 7.76818V7.76818C4.26128 6.92689 3.92868 6.12005 3.33666 5.52517C2.74463 4.93028 1.94168 4.59608 1.10443 4.59608C1.03173 4.59619 0.96176 4.5683 0.908909 4.51815C0.856058 4.46799 0.824351 4.39938 0.820312 4.32645C0.820312 4.28896 0.827661 4.25184 0.84194 4.2172C0.856218 4.18256 0.877146 4.15109 0.903528 4.12458C0.929911 4.09807 0.961232 4.07704 0.995702 4.06269C1.03017 4.04835 1.06712 4.04096 1.10443 4.04096C1.94168 4.04096 2.74463 3.70676 3.33666 3.11188C3.92868 2.51699 4.26128 1.71016 4.26128 0.868863C4.26117 0.795816 4.28892 0.725505 4.33884 0.672399C4.38875 0.619293 4.45703 0.587432 4.52961 0.583374V0.583374C4.56692 0.583374 4.60387 0.590758 4.63834 0.605106C4.67281 0.619453 4.70413 0.640482 4.73051 0.666992C4.75689 0.693502 4.77782 0.724974 4.7921 0.759611C4.80638 0.794248 4.81373 0.831372 4.81373 0.868863V0.868863C4.81373 1.71016 5.14632 2.51699 5.73835 3.11188C6.33037 3.70676 7.13333 4.04096 7.97057 4.04096C8.00789 4.04096 8.04483 4.04835 8.0793 4.06269C8.11377 4.07704 8.14509 4.09807 8.17148 4.12458C8.19786 4.15109 8.21879 4.18256 8.23306 4.2172C8.24734 4.25184 8.25469 4.28896 8.25469 4.32645C8.25065 4.39938 8.21895 4.46799 8.16609 4.51815C8.11324 4.5683 8.04327 4.59619 7.97057 4.59608V4.59608C7.13333 4.59608 6.33037 4.93028 5.73835 5.52517C5.14632 6.12005 4.81373 6.92689 4.81373 7.76818C4.81373 7.8439 4.78379 7.91651 4.73051 7.97005C4.67723 8.02359 4.60496 8.05367 4.52961 8.05367V8.05367Z" fill="#50E6FF"/>
<path d="M24.4321 27.3894C24.3735 27.3894 24.3173 27.366 24.2758 27.3244C24.2344 27.2828 24.2111 27.2263 24.2111 27.1674C24.2111 26.4901 23.9434 25.8406 23.4668 25.3618C22.9902 24.8829 22.3438 24.6138 21.6698 24.6138C21.6112 24.6138 21.555 24.5905 21.5136 24.5488C21.4721 24.5072 21.4489 24.4507 21.4489 24.3918C21.4489 24.3329 21.4721 24.2764 21.5136 24.2348C21.555 24.1931 21.6112 24.1698 21.6698 24.1698C22.3438 24.1698 22.9902 23.9007 23.4668 23.4218C23.9434 22.943 24.2111 22.2935 24.2111 21.6162C24.2111 21.5573 24.2344 21.5008 24.2758 21.4592C24.3173 21.4176 24.3735 21.3942 24.4321 21.3942C24.4907 21.3942 24.5469 21.4176 24.5883 21.4592C24.6298 21.5008 24.6531 21.5573 24.6531 21.6162C24.6531 22.2935 24.9208 22.943 25.3974 23.4218C25.874 23.9007 26.5203 24.1698 27.1943 24.1698C27.2529 24.1698 27.3091 24.1931 27.3506 24.2348C27.392 24.2764 27.4153 24.3329 27.4153 24.3918C27.4153 24.4507 27.392 24.5072 27.3506 24.5488C27.3091 24.5905 27.2529 24.6138 27.1943 24.6138C26.8606 24.6138 26.5301 24.6799 26.2218 24.8082C25.9135 24.9366 25.6334 25.1246 25.3974 25.3618C25.1614 25.5989 24.9742 25.8804 24.8465 26.1902C24.7188 26.5 24.6531 26.8321 24.6531 27.1674C24.6531 27.2263 24.6298 27.2828 24.5883 27.3244C24.5469 27.366 24.4907 27.3894 24.4321 27.3894Z" fill="#50E6FF"/>
<path d="M23.4705 11.6883C23.9174 13.5614 23.8014 15.5257 23.1373 17.3326C22.4731 19.1395 21.2905 20.7079 19.7392 21.8394C18.1879 22.9709 16.3375 23.6148 14.4219 23.6895C12.5064 23.7642 10.6119 23.2664 8.97794 22.2591C7.34398 21.2518 6.04402 19.7803 5.24245 18.0305C4.44088 16.2808 4.17371 14.3315 4.47474 12.4292C4.77577 10.5269 5.63148 8.757 6.93363 7.34339C8.23578 5.92978 9.92589 4.93596 11.7902 4.4876C14.2893 3.88657 16.9237 4.30749 19.1141 5.6578C21.3045 7.00811 22.8715 9.17726 23.4705 11.6883V11.6883Z" fill="url(#paint0_radial_1027_26929)"/>
<path d="M8.80478 20.5044C9.14472 20.5044 9.48133 20.4371 9.7954 20.3064C10.1095 20.1757 10.3948 19.9841 10.6352 19.7426C10.8756 19.501 11.0663 19.2143 11.1963 18.8987C11.3264 18.5831 11.3934 18.2449 11.3934 17.9033C11.3934 17.5617 11.3264 17.2235 11.1963 16.9079C11.0663 16.5923 10.8756 16.3056 10.6352 16.064C10.3948 15.8225 10.1095 15.6309 9.7954 15.5002C9.48133 15.3695 9.14472 15.3022 8.80478 15.3022C8.81261 15.2284 8.81261 15.1539 8.80478 15.0801C8.79652 14.3901 8.51898 13.7309 8.03189 13.2444C7.54481 12.758 6.88712 12.4831 6.20038 12.479H4.25892C4.12595 13.6907 4.21692 14.9167 4.52725 16.0952C4.92253 17.7397 5.72626 19.2567 6.86332 20.5044H8.80478Z" fill="#F2F2F2"/>
<path d="M23.4692 12.0992C23.1535 10.4019 22.3841 8.82294 21.2436 7.53142C21.0966 7.4673 20.9431 7.41944 20.7858 7.38867C20.3775 7.26904 19.9477 7.24305 19.528 7.31261C19.1084 7.38218 18.7097 7.54553 18.3612 7.79061C18.0128 8.03569 17.7236 8.35625 17.5149 8.72865C17.3062 9.10104 17.1834 9.51576 17.1555 9.94221H16.824C16.1765 9.94273 15.55 10.1731 15.0551 10.5926C14.5602 11.0122 14.2288 11.594 14.1193 12.2352C14.0098 12.8764 14.1293 13.536 14.4566 14.0973C14.784 14.6586 15.2982 15.0857 15.9085 15.3031C16.1819 15.4031 16.47 15.4567 16.7609 15.4617H19.9177C21.2304 14.4868 22.4227 13.358 23.4692 12.0992V12.0992Z" fill="#F2F2F2"/>
<path d="M26.9262 5.76781C25.9318 4.18176 23.6115 3.46804 20.3757 3.94385C19.2865 4.10961 18.2104 4.35342 17.1558 4.67343C18.0105 4.96551 18.8227 5.37089 19.5707 5.87883L20.7072 5.64092C21.2817 5.55056 21.862 5.50285 22.4435 5.49818C24.0219 5.49818 25.0952 5.89469 25.6003 6.656C26.2001 7.67107 25.695 9.39986 24.2113 11.4141C22.131 13.9834 19.5874 16.1357 16.7138 17.7583C13.8559 19.5589 10.6858 20.8019 7.36953 21.4221C4.90719 21.7869 3.13935 21.4221 2.53955 20.407C1.93975 19.392 2.44484 17.6632 3.92856 15.6489C4.11797 15.411 4.16533 15.2841 4.37052 15.0303C4.25999 14.1722 4.25999 13.3033 4.37052 12.4451C3.71254 13.1243 3.11075 13.8563 2.57112 14.6338C0.613872 17.2667 0.0772079 19.614 1.07162 21.2794C1.59453 21.9842 2.29275 22.5384 3.09619 22.8864C3.89964 23.2344 4.78005 23.3639 5.64905 23.2619C6.33092 23.2644 7.01187 23.2114 7.68521 23.1033C11.1681 22.4705 14.4997 21.1788 17.503 19.2968C20.5713 17.5326 23.281 15.2027 25.4898 12.4292C27.3839 9.79637 27.9206 7.43316 26.9262 5.76781Z" fill="#50E6FF"/>
<defs>
<radialGradient id="paint0_radial_1027_26929" cx="0" cy="0" r="1" gradientUnits="userSpaceOnUse" gradientTransform="translate(13.4425 13.7286) scale(9.76729 9.72011)">
<stop offset="0.18" stop-color="#5EA0EF"/>
<stop offset="1" stop-color="#0078D4"/>
</radialGradient>
</defs>
</svg>
