<svg width="28" height="28" viewBox="0 0 28 28" fill="none" xmlns="http://www.w3.org/2000/svg">
<g clip-path="url(#clip0_1027_26852)">
<mask id="mask0_1027_26852" style="mask-type:luminance" maskUnits="userSpaceOnUse" x="0" y="-1" width="29" height="30">
<path d="M28.0002 -0.00012207H0V28.0001H28.0002V-0.00012207Z" fill="white"/>
</mask>
<g mask="url(#mask0_1027_26852)">
<path fill-rule="evenodd" clip-rule="evenodd" d="M1.14684 19.3192L0.736755 20.8202C0.583921 21.3003 0.369835 22.0056 0.254335 22.6332C0.089834 23.0672 0 23.5379 0 24.0297C0 26.0574 1.53184 27.7269 3.50119 27.9451C4.05536 28.025 4.68245 28.0209 5.38537 27.9176L8.61472 27.472C9.42674 27.36 10.0935 26.7738 10.3093 25.9828L12.5318 17.8195L1.14684 19.3192Z" fill="url(#paint0_linear_1027_26852)"/>
<path d="M4.29683 19.7057C0.893052 20.2331 0.194214 22.8016 0.194214 22.8016L3.4539 10.8244L20.4868 8.52026L18.1639 16.9571C18.0432 17.4092 17.6634 17.7557 17.1927 17.8274L17.0976 17.8432L4.20116 19.7221L4.29683 19.7057Z" fill="url(#paint1_linear_1027_26852)"/>
<path d="M4.29683 19.7057C0.893052 20.2331 0.194214 22.8016 0.194214 22.8016L3.4539 10.8244L20.4868 8.52026L18.1639 16.9571C18.0432 17.4092 17.6634 17.7557 17.1927 17.8274L17.0976 17.8432L4.20116 19.7221L4.29683 19.7057Z" fill="url(#paint2_linear_1027_26852)" fill-opacity="0.8"/>
<path d="M6.22839 12.064L25.0847 9.27854C25.5334 9.21729 25.8967 8.88887 26.0112 8.45895L27.9572 1.41632C27.984 1.32065 27.998 1.21974 27.998 1.1159C27.998 0.49931 27.4987 -0.000610352 26.8815 -0.000610352C26.8337 -0.000610352 26.7857 0.00230633 26.7397 0.00813971L8.74724 2.667C6.79306 2.98083 5.21514 4.42226 4.70297 6.30235L2.10828 15.7063C2.6292 13.804 2.94945 12.6572 6.22839 12.064Z" fill="url(#paint3_linear_1027_26852)"/>
<path d="M6.22839 12.064L25.0847 9.27854C25.5334 9.21729 25.8967 8.88887 26.0112 8.45895L27.9572 1.41632C27.984 1.32065 27.998 1.21974 27.998 1.1159C27.998 0.49931 27.4987 -0.000610352 26.8815 -0.000610352C26.8337 -0.000610352 26.7857 0.00230633 26.7397 0.00813971L8.74724 2.667C6.79306 2.98083 5.21514 4.42226 4.70297 6.30235L2.10828 15.7063C2.6292 13.804 2.94945 12.6572 6.22839 12.064Z" fill="url(#paint4_linear_1027_26852)"/>
<path d="M6.22839 12.064L25.0847 9.27854C25.5334 9.21729 25.8967 8.88887 26.0112 8.45895L27.9572 1.41632C27.984 1.32065 27.998 1.21974 27.998 1.1159C27.998 0.49931 27.4987 -0.000610352 26.8815 -0.000610352C26.8337 -0.000610352 26.7857 0.00230633 26.7397 0.00813971L8.74724 2.667C6.79306 2.98083 5.21514 4.42226 4.70297 6.30235L2.10828 15.7063C2.6292 13.804 2.94945 12.6572 6.22839 12.064Z" fill="url(#paint5_linear_1027_26852)" fill-opacity="0.4"/>
<path d="M6.22825 12.0643C3.49765 12.5584 2.81982 13.438 2.36831 14.8165L0.194214 22.8029C0.194214 22.8029 0.888968 20.2602 4.25133 19.7166L17.0982 17.8452L17.1932 17.8294C17.664 17.7577 18.0437 17.4106 18.1645 16.9591L20.0756 10.0186L6.22884 12.0643H6.22825Z" fill="url(#paint6_linear_1027_26852)"/>
<path d="M6.22825 12.0643C3.49765 12.5584 2.81982 13.438 2.36831 14.8165L0.194214 22.8029C0.194214 22.8029 0.888968 20.2602 4.25133 19.7166L17.0982 17.8452L17.1932 17.8294C17.664 17.7577 18.0437 17.4106 18.1645 16.9591L20.0756 10.0186L6.22884 12.0643H6.22825Z" fill="url(#paint7_linear_1027_26852)" fill-opacity="0.2"/>
<path fill-rule="evenodd" clip-rule="evenodd" d="M4.25136 19.7165C1.40993 20.1762 0.476586 22.058 0.254335 22.6315C0.0898339 23.0667 0 23.5374 0 24.0292C0 26.0569 1.53184 27.7264 3.50119 27.9445C4.05536 28.0244 4.68245 28.0204 5.38537 27.9171L8.61472 27.4714C9.42672 27.3594 10.0935 26.7732 10.3093 25.9822L12.3353 18.5394L4.25194 19.7172L4.25136 19.7165Z" fill="url(#paint8_linear_1027_26852)"/>
</g>
</g>
<defs>
<linearGradient id="paint0_linear_1027_26852" x1="6.26562" y1="28.0005" x2="6.26562" y2="17.8195" gradientUnits="userSpaceOnUse">
<stop offset="0.056" stop-color="#2AAC94"/>
<stop offset="0.155" stop-color="#239C87"/>
<stop offset="0.372" stop-color="#177E71"/>
<stop offset="0.588" stop-color="#0E6961"/>
<stop offset="0.799" stop-color="#095D57"/>
<stop offset="1" stop-color="#085954"/>
</linearGradient>
<linearGradient id="paint1_linear_1027_26852" x1="19.1307" y1="20.613" x2="9.29953" y2="9.92027" gradientUnits="userSpaceOnUse">
<stop offset="0.0417478" stop-color="#ABE88E"/>
<stop offset="0.548926" stop-color="#2AAA92"/>
<stop offset="0.906" stop-color="#117865"/>
</linearGradient>
<linearGradient id="paint2_linear_1027_26852" x1="-5.02865" y1="20.0931" x2="4.32712" y2="16.9026" gradientUnits="userSpaceOnUse">
<stop stop-color="#6AD6F9"/>
<stop offset="1" stop-color="#6AD6F9" stop-opacity="0"/>
</linearGradient>
<linearGradient id="paint3_linear_1027_26852" x1="2.10828" y1="7.85286" x2="27.0115" y2="7.85286" gradientUnits="userSpaceOnUse">
<stop offset="0.043" stop-color="#25FFD4"/>
<stop offset="0.874" stop-color="#55DDB9"/>
</linearGradient>
<linearGradient id="paint4_linear_1027_26852" x1="2.10828" y1="4.37208" x2="24.5412" y2="14.7889" gradientUnits="userSpaceOnUse">
<stop stop-color="#6AD6F9"/>
<stop offset="0.229501" stop-color="#60E9D0"/>
<stop offset="0.650711" stop-color="#6DE9BB"/>
<stop offset="0.99354" stop-color="#ABE88E"/>
</linearGradient>
<linearGradient id="paint5_linear_1027_26852" x1="4.18357" y1="6.32136" x2="16.3816" y2="9.01924" gradientUnits="userSpaceOnUse">
<stop stop-color="white" stop-opacity="0"/>
<stop offset="0.458511" stop-color="white"/>
<stop offset="1" stop-color="white" stop-opacity="0"/>
</linearGradient>
<linearGradient id="paint6_linear_1027_26852" x1="8.22813" y1="16.771" x2="8.51635" y2="8.21682" gradientUnits="userSpaceOnUse">
<stop offset="0.204642" stop-color="#063D3B" stop-opacity="0"/>
<stop offset="0.58553" stop-color="#063D3B" stop-opacity="0.236587"/>
<stop offset="0.872285" stop-color="#063D3B" stop-opacity="0.75"/>
</linearGradient>
<linearGradient id="paint7_linear_1027_26852" x1="-0.834268" y1="15.9203" x2="9.58977" y2="17.8807" gradientUnits="userSpaceOnUse">
<stop stop-color="white" stop-opacity="0"/>
<stop offset="0.458511" stop-color="white"/>
<stop offset="1" stop-color="white" stop-opacity="0"/>
</linearGradient>
<linearGradient id="paint8_linear_1027_26852" x1="6.69554" y1="25.1789" x2="4.6622" y2="15.2342" gradientUnits="userSpaceOnUse">
<stop offset="0.064" stop-color="#063D3B" stop-opacity="0"/>
<stop offset="0.17" stop-color="#063D3B" stop-opacity="0.135"/>
<stop offset="0.562" stop-color="#063D3B" stop-opacity="0.599"/>
<stop offset="0.85" stop-color="#063D3B" stop-opacity="0.9"/>
<stop offset="1" stop-color="#063D3B"/>
</linearGradient>
<clipPath id="clip0_1027_26852">
<rect width="28" height="28" fill="white"/>
</clipPath>
</defs>
</svg>
