<svg width="28" height="28" viewBox="0 0 28 28" fill="none" xmlns="http://www.w3.org/2000/svg">
<path d="M9.19361 2.3335L4.94897 3.11631V8.87661L9.19361 9.77759L13.4531 8.07903V3.78096L9.19361 2.3335Z" fill="url(#paint0_linear_1027_26904)"/>
<path d="M4.94897 3.12034V8.88065L9.23813 9.78162V2.39661L4.94897 3.12034ZM6.75962 8.43755L5.55747 8.20123V3.77022L6.75962 3.57821V8.43755ZM8.62963 8.77726L7.24939 8.55571V3.48959L8.62963 3.25327V8.77726Z" fill="#341A6E"/>
<path d="M18.3788 2.40857L14.1342 3.19138V8.95169L18.3788 9.85266L22.6234 8.13934V3.85603L18.3788 2.40857Z" fill="url(#paint1_linear_1027_26904)"/>
<path d="M14.1342 3.1898V8.9501L18.3936 9.85107V2.46606L14.1342 3.1898ZM15.93 8.507L14.7278 8.27068V3.83968L15.93 3.64767V8.507ZM17.8 8.84671L16.4197 8.62516V3.55905L17.8 3.30796V8.84671Z" fill="#341A6E"/>
<path d="M4.84339 10.2839L0.598755 11.0667V16.8271L4.84339 17.728L9.10286 16.0295V11.7314L4.84339 10.2839Z" fill="url(#paint2_linear_1027_26904)"/>
<path d="M0.583496 11.0639V16.7799L4.87265 17.6809V10.2959L0.583496 11.0639ZM2.3793 16.3959L1.17715 16.1448V11.7138L2.3793 11.507V16.3959ZM4.26416 16.7799L2.88391 16.5584V11.4332L4.26416 11.1969V16.7799Z" fill="#341A6E"/>
<path d="M14.0004 10.2208L9.75574 11.0036V16.7639L14.0004 17.6797L18.245 15.9664V11.6683L14.0004 10.2208Z" fill="url(#paint3_linear_1027_26904)"/>
<path d="M9.75574 11.0049V16.7799L14.0301 17.6809V10.2959L9.75574 11.0049ZM11.5515 16.3368L10.3494 16.0857V11.6547L11.5515 11.448V16.3368ZM13.4216 16.6618L12.0413 16.4402V11.3741L13.4216 11.1378V16.6618Z" fill="#341A6E"/>
<path d="M23.1573 10.2959L18.9127 11.0787V16.839L23.1573 17.74L27.4168 16.0414V11.7434L23.1573 10.2959Z" fill="url(#paint4_linear_1027_26904)"/>
<path d="M18.9127 11.0787V16.7799L23.2019 17.6809V10.2959L18.9127 11.0787ZM20.7234 16.4107L19.5212 16.1596V11.7286L20.7234 11.5218V16.4107ZM22.5934 16.7356L21.2131 16.5141V11.448L22.5934 11.2116V16.7356Z" fill="#341A6E"/>
<path d="M9.08911 18.3159L4.84448 19.084V24.8443L9.08911 25.76L13.3486 24.0467V19.7634L9.08911 18.3159Z" fill="url(#paint5_linear_1027_26904)"/>
<path d="M4.84448 19.0842V24.8445L9.13364 25.7602V18.2571L4.84448 19.0842ZM6.65513 24.4162L5.45298 24.1651V19.7341L6.65513 19.5273V24.4162ZM8.52514 24.7559L7.14489 24.5343V19.4535L8.52514 19.2171V24.7559Z" fill="#341A6E"/>
<path d="M18.2593 18.3734L14.0146 19.1562V24.9165L18.2593 25.8175L22.5188 24.119V19.8209L18.2593 18.3734Z" fill="url(#paint6_linear_1027_26904)"/>
<path d="M14.0146 19.1603V24.9206L18.3038 25.8215V18.4365L14.0146 19.1603ZM15.8253 24.4922L14.6231 24.2411V19.8101L15.8253 19.6034V24.4922ZM17.6953 24.8172L16.3151 24.5956V19.5295L17.6953 19.2932V24.8172Z" fill="#341A6E"/>
<defs>
<linearGradient id="paint0_linear_1027_26904" x1="4.94897" y1="6.05554" x2="13.4531" y2="6.05554" gradientUnits="userSpaceOnUse">
<stop stop-color="#B77AF4"/>
<stop offset="1" stop-color="#773ADC"/>
</linearGradient>
<linearGradient id="paint1_linear_1027_26904" x1="91.6412" y1="30.6217" x2="140.2" y2="30.6217" gradientUnits="userSpaceOnUse">
<stop stop-color="#B77AF4"/>
<stop offset="1" stop-color="#773ADC"/>
</linearGradient>
<linearGradient id="paint2_linear_1027_26904" x1="0.683796" y1="78.174" x2="49.3273" y2="78.174" gradientUnits="userSpaceOnUse">
<stop stop-color="#B77AF4"/>
<stop offset="1" stop-color="#773ADC"/>
</linearGradient>
<linearGradient id="paint3_linear_1027_26904" x1="62.2194" y1="77.9473" x2="110.778" y2="77.9473" gradientUnits="userSpaceOnUse">
<stop stop-color="#B77AF4"/>
<stop offset="1" stop-color="#773ADC"/>
</linearGradient>
<linearGradient id="paint4_linear_1027_26904" x1="123.938" y1="78.2604" x2="172.667" y2="78.2604" gradientUnits="userSpaceOnUse">
<stop stop-color="#B77AF4"/>
<stop offset="1" stop-color="#773ADC"/>
</linearGradient>
<linearGradient id="paint5_linear_1027_26904" x1="29.2513" y1="126.702" x2="77.9798" y2="126.702" gradientUnits="userSpaceOnUse">
<stop stop-color="#B77AF4"/>
<stop offset="1" stop-color="#773ADC"/>
</linearGradient>
<linearGradient id="paint6_linear_1027_26904" x1="90.9768" y1="127.057" x2="139.705" y2="127.057" gradientUnits="userSpaceOnUse">
<stop stop-color="#B77AF4"/>
<stop offset="1" stop-color="#773ADC"/>
</linearGradient>
</defs>
</svg>
